<svg width="512" height="512" viewBox="0 0 512 512" fill="none" xmlns="http://www.w3.org/2000/svg">
  <rect width="512" height="512" rx="128" fill="#FF8178" opacity="0.1"/>
  <path d="M256 128C194.957 128 136.571 153.071 93.8553 195.787C51.1393 238.503 26.0679 296.889 26.0679 357.932C26.0679 387.544 46.4554 407.932 76.0679 407.932H436C465.613 407.932 486 387.544 486 357.932C486 296.889 460.929 238.503 418.213 195.787C375.497 153.071 317.111 128 256 128Z" fill="#FF8178" opacity="0.6"/>
  <path d="M256 178C203.158 178 152.943 198.571 116.005 235.509C79.066 272.448 58.4956 322.663 58.4956 375.505C58.4956 399.668 75.3332 416.505 99.4956 416.505H412.504C436.667 416.505 453.504 399.668 453.504 375.505C453.504 322.663 432.934 272.448 395.995 235.509C359.057 198.571 308.842 178 256 178Z" fill="#FF8178"/>
  <path d="M256 348C264.837 348 272 340.837 272 332C272 323.163 264.837 316 256 316C247.163 316 240 323.163 240 332C240 340.837 247.163 348 256 348Z" fill="white"/>
  <rect x="252" y="184" width="8" height="132" rx="4" fill="white"/>
  <rect x="192" y="96" width="128" height="24" rx="12" fill="#FF8178"/>
</svg>